<svg xmlns="http://www.w3.org/2000/svg" data-name="Layer 2" viewBox="0 0 64 80" x="0px" y="0px"><title>Ecommerce Outline</title><path d="M12,18.88a1,1,0,0,0-1,1V44.13a1,1,0,0,0,2,0V19.88A1,1,0,0,0,12,18.88Z"/><path d="M14.71,18.88a1,1,0,0,0-1,1V44.13a1,1,0,0,0,2,0V19.88A1,1,0,0,0,14.71,18.88Z"/><path d="M17.42,18.88a1,1,0,0,0-1,1V44.13a1,1,0,0,0,2,0V19.88A1,1,0,0,0,17.42,18.88Z"/><path d="M40,18.88a1,1,0,0,0-1,1V44.13a1,1,0,0,0,2,0V19.88A1,1,0,0,0,40,18.88Z"/><path d="M42.71,18.88a1,1,0,0,0-1,1V44.13a1,1,0,0,0,2,0V19.88A1,1,0,0,0,42.71,18.88Z"/><path d="M45.42,18.88a1,1,0,0,0-1,1V44.13a1,1,0,1,0,2,0V19.88A1,1,0,0,0,45.42,18.88Z"/><path d="M21.13,18.88a1,1,0,0,0-1,1V44.13a1,1,0,0,0,2,0V19.88A1,1,0,0,0,21.13,18.88Z"/><path d="M23.84,18.88a1,1,0,0,0-1,1V44.13a1,1,0,0,0,2,0V19.88A1,1,0,0,0,23.84,18.88Z"/><path d="M26.62,18.88a1,1,0,0,0-1,1V44.13a1,1,0,0,0,2,0V19.88A1,1,0,0,0,26.62,18.88Z"/><path d="M29.33,18.88a1,1,0,0,0-1,1V44.13a1,1,0,1,0,2,0V19.88A1,1,0,0,0,29.33,18.88Z"/><path d="M33.29,18.88a1,1,0,0,0-1,1V44.13a1,1,0,0,0,2,0V19.88A1,1,0,0,0,33.29,18.88Z"/><path d="M36,18.88a1,1,0,0,0-1,1V44.13a1,1,0,0,0,2,0V19.88A1,1,0,0,0,36,18.88Z"/><path d="M49.29,18.88a1,1,0,0,0-1,1V44.13a1,1,0,0,0,2,0V19.88A1,1,0,0,0,49.29,18.88Z"/><path d="M52,45.13a1,1,0,0,0,1-1V19.88a1,1,0,1,0-2,0V44.13A1,1,0,0,0,52,45.13Z"/><path d="M12,11H4a1,1,0,0,0-1,1v8a1,1,0,0,0,2,0V13h7a1,1,0,0,0,0-2Z"/><path d="M12,51.13H5v-7a1,1,0,0,0-2,0v8a1,1,0,0,0,1,1h8a1,1,0,0,0,0-2Z"/><path d="M60,11H52a1,1,0,0,0,0,2h7v7a1,1,0,0,0,2,0V12A1,1,0,0,0,60,11Z"/><path d="M60,43.13a1,1,0,0,0-1,1v7H52a1,1,0,0,0,0,2h8a1,1,0,0,0,1-1v-8A1,1,0,0,0,60,43.13Z"/><text x="0" y="79" fill="#000000" font-size="5px" font-weight="bold" font-family="'Helvetica Neue', Helvetica, Arial-Unicode, Arial, Sans-serif">Created by Ladalle CS</text><text x="0" y="84" fill="#000000" font-size="5px" font-weight="bold" font-family="'Helvetica Neue', Helvetica, Arial-Unicode, Arial, Sans-serif">from the Noun Project</text></svg>