<svg id="Layer_1" data-name="Layer 1" xmlns="http://www.w3.org/2000/svg" viewBox="0 0 286.09 235.16"><defs><style>.cls-1,.cls-3,.cls-4{fill:#9cc;}.cls-2{fill:#fee6d8;}.cls-2,.cls-4{stroke:#000;stroke-width:0.5px;}.cls-2,.cls-3,.cls-4{stroke-miterlimit:10;}.cls-3{stroke:#9cc;stroke-width:2px;}</style></defs><title>fridgeiticon2</title><rect class="cls-1" y="69.13" width="159.4" height="166.03" rx="13.25"/><rect class="cls-1" width="159.4" height="66.09" rx="12.45"/><rect class="cls-2" x="143.1" y="20.07" width="5.55" height="23.6"/><path d="M114,121.76V102.29H109.7V98.36H114V95.49c0-5.41,2.47-8.58,8.06-8.58a12,12,0,0,1,2.83.25v4a10.67,10.67,0,0,0-1.94-.17c-3,0-3.8,1.24-3.8,4.63v2.69h5.31v3.93h-5.31v19.47Z" transform="translate(-5.89 -4.6)"/><path d="M128.48,104.72c0-2.11,0-4.25,0-6.36h5c.09.73.18,3.22.18,5.13,1.47-3.47,4.72-5.81,9.36-5.75v4.82c-5.36-.07-9.36,2.9-9.36,9.73v9.47h-5.13Z" transform="translate(-5.89 -4.6)"/><path d="M15.8,21.05c.42,1.36,1.6,2.17,3.76,2.17s3-.77,3-1.78-.62-1.6-3.69-2c-4.56-.59-5.36-2.2-5.36-3.78s1.35-3.83,5.5-3.83c4.42,0,5.75,2.24,5.89,3.83H22.16c-.19-.72-.69-1.83-3.24-1.83-2.16,0-2.6.91-2.6,1.57,0,.85.55,1.35,3.33,1.73,4.87.68,5.71,2.21,5.71,4.07,0,2.29-1.74,4.05-6,4.05-3.65,0-5.95-1.55-6.37-4.22Z" transform="translate(-5.89 -4.6)"/><path d="M42.14,20.86c-.6,2.33-2.61,4.41-6.36,4.41-4.61,0-6.78-3.06-6.78-6.69a6.5,6.5,0,0,1,6.81-6.73c4.46,0,6,2.86,6.28,4.48H39.31a3.4,3.4,0,0,0-3.52-2.28c-2.53,0-3.95,1.88-3.95,4.5s1.35,4.51,3.95,4.51a3.5,3.5,0,0,0,3.56-2.2Z" transform="translate(-5.89 -4.6)"/><path d="M58.29,21.67c0,1.34.08,3,.12,3.25H55.76a13.49,13.49,0,0,1-.15-1.76c-.67,1.27-2.11,2.11-4.73,2.11-3.57,0-4.91-2.17-4.91-4.1,0-3.28,3-4.19,6.61-4.19h3v-.6c0-1.31-.56-2.49-3.06-2.49-2.27,0-2.8,1-3,2H46.7c.14-1.66,1.26-4.07,5.78-4.07,4.85,0,5.81,2.35,5.81,4.45Zm-2.72-2.78c-.37,0-1.23,0-2.93,0-2.71,0-3.94.63-3.94,2.15,0,1.16.87,2.13,2.82,2.13,3.09,0,4-1.74,4-3.8Z" transform="translate(-5.89 -4.6)"/><path d="M64,15.41c0-1.07,0-2.27,0-3.21h2.71c0,.42.09,1.41.1,2.18a4.65,4.65,0,0,1,4.51-2.53c3,0,4.93,1.87,4.93,5.3v7.77H73.38V17.63c0-1.93-.74-3.5-3-3.5-2.46,0-3.65,1.85-3.65,4.63v6.16H64Z" transform="translate(-5.89 -4.6)"/><path d="M15.8,40.05c.42,1.36,1.6,2.17,3.76,2.17s3-.77,3-1.78-.62-1.6-3.69-2c-4.56-.59-5.36-2.2-5.36-3.78s1.35-3.83,5.5-3.83c4.42,0,5.75,2.24,5.89,3.83H22.16c-.19-.72-.69-1.83-3.24-1.83-2.16,0-2.6.91-2.6,1.57,0,.85.55,1.35,3.33,1.73,4.87.68,5.71,2.21,5.71,4.07,0,2.29-1.74,4.05-6,4.05-3.65,0-5.95-1.55-6.37-4.22Z" transform="translate(-5.89 -4.6)"/><path d="M26.61,31.2h2.47v-4h2.79v4H35.1v2.14H31.87v6.57c0,1.36.34,2,1.69,2a5.51,5.51,0,0,0,1.21-.11v2a6.57,6.57,0,0,1-2.11.25c-2.76,0-3.58-1.22-3.58-3.72v-7H26.61Z" transform="translate(-5.89 -4.6)"/><path d="M50.42,37.55c0,3.63-2.38,6.72-7,6.72a6.48,6.48,0,0,1-6.81-6.7,6.56,6.56,0,0,1,7-6.72A6.55,6.55,0,0,1,50.42,37.55Zm-11,0c0,2.3,1.43,4.48,4.06,4.48s4-2,4-4.45-1.39-4.53-4.07-4.53S39.47,35.16,39.47,37.57Z" transform="translate(-5.89 -4.6)"/><path d="M53.45,34.66c0-1.15,0-2.31,0-3.46h2.72c0,.4.09,1.75.09,2.79a5.15,5.15,0,0,1,5.09-3.12v2.62c-2.91,0-5.09,1.57-5.09,5.28v5.15H53.45Z" transform="translate(-5.89 -4.6)"/><path d="M65.51,38.22a3.88,3.88,0,0,0,4,3.86,3.58,3.58,0,0,0,3.51-1.85h2.79c-.71,2-2.53,4-6.4,4a6.33,6.33,0,0,1-6.74-6.68,6.4,6.4,0,0,1,6.69-6.74c4.85,0,6.62,3.51,6.62,6.66,0,.24,0,.42,0,.71Zm7.65-1.89A3.43,3.43,0,0,0,69.39,33a3.52,3.52,0,0,0-3.83,3.38Z" transform="translate(-5.89 -4.6)"/><path d="M15.8,59.05c.42,1.36,1.6,2.17,3.76,2.17s3-.77,3-1.78-.62-1.6-3.69-2c-4.56-.59-5.36-2.2-5.36-3.78s1.35-3.83,5.5-3.83c4.42,0,5.75,2.24,5.89,3.83H22.16c-.19-.72-.69-1.83-3.24-1.83-2.16,0-2.6.91-2.6,1.57,0,.85.55,1.35,3.33,1.73,4.87.68,5.71,2.21,5.71,4.07,0,2.29-1.74,4.05-6,4.05-3.65,0-5.95-1.55-6.37-4.22Z" transform="translate(-5.89 -4.6)"/><path d="M41.84,59.67c0,1.34.08,3,.12,3.25H39.31a12,12,0,0,1-.15-1.76c-.67,1.27-2.11,2.11-4.73,2.11-3.57,0-4.91-2.17-4.91-4.1,0-3.28,2.95-4.19,6.61-4.19h3v-.6c0-1.31-.56-2.49-3.07-2.49-2.26,0-2.79,1-3,2H30.25c.14-1.66,1.26-4.07,5.78-4.07,4.85,0,5.81,2.35,5.81,4.45Zm-2.72-2.78c-.37,0-1.23,0-2.93,0-2.71,0-3.94.63-3.94,2.15,0,1.16.87,2.13,2.82,2.13,3.09,0,4-1.74,4-3.8Z" transform="translate(-5.89 -4.6)"/><path d="M48.72,50.2C50,53.61,52.38,59,52.84,60.4h0c.38-1.2,1.24-3.42,4.06-10.2h2.84L54.3,62.92H51.23L45.71,50.2Z" transform="translate(-5.89 -4.6)"/><path d="M65.66,57.22a3.88,3.88,0,0,0,4,3.86,3.58,3.58,0,0,0,3.51-1.85H76c-.71,2-2.53,4-6.4,4a6.33,6.33,0,0,1-6.74-6.68,6.4,6.4,0,0,1,6.69-6.74c4.85,0,6.62,3.51,6.62,6.66,0,.24,0,.42,0,.71Zm7.65-1.89A3.42,3.42,0,0,0,69.54,52a3.52,3.52,0,0,0-3.83,3.38Z" transform="translate(-5.89 -4.6)"/><rect class="cls-2" x="143.1" y="94.28" width="5.55" height="21.71"/><rect class="cls-2" x="143.1" y="86.04" width="5.55" height="5.55"/><rect class="cls-3" x="153.85" y="95.59" width="5.55" height="18.73"/><path d="M184.88,86v27.76c0,2.23,0,4.51,0,6.75h-5c-.11-.92-.16-2.26-.18-3.36-1.21,1.95-3.12,4-8.4,4-6.71,0-11.34-5-11.34-12.15a12.09,12.09,0,0,1,11.92-12.54c5.27,0,7.16,2.26,7.82,3.32V86Zm-19.61,22.89c0,4.16,2.49,8.07,7.29,8.07,5.15,0,7.35-3.32,7.35-8.22s-1.76-8.11-7.23-8.11C167.69,100.6,165.27,104.67,165.27,108.86Z" transform="translate(-5.89 -4.6)"/><path d="M215.29,117.52c0,8.72-3.1,13.76-12.82,13.76-9.47,0-11.34-5.4-11.78-8.11h5.22c.66,2.17,2.26,4.11,6.85,4.11,6.34,0,7.47-4.08,7.47-9.44v-1.19c-1.4,2.52-3.77,4.2-8.55,4.2-6.65,0-11.22-5.22-11.22-11.79,0-7.43,5.39-12.63,11.79-12.63,5.25,0,7.31,2.32,8,4,0-1.06.07-2.74.14-3.36h5c-.05,2.27-.05,4.54-.05,6.81Zm-19.57-8.66c0,4.46,2.87,7.82,7.28,7.82,4.61,0,7.35-2.85,7.35-8.07,0-5-2.58-8-7.12-8C198.17,100.63,195.72,104.63,195.72,108.86Z" transform="translate(-5.89 -4.6)"/><path d="M226,110a7.14,7.14,0,0,0,7.46,7.11c3.45,0,5.3-1.34,6.45-3.4H245c-1.29,3.64-4.65,7.42-11.78,7.42-8.67,0-12.4-6.18-12.4-12.28,0-7,4.64-12.41,12.31-12.41,8.94,0,12.2,6.45,12.2,12.25,0,.45,0,.78,0,1.31Zm14.07-3.47c-.19-2.54-1.54-6.24-6.93-6.24-4.57,0-6.69,2.79-7.05,6.24Z" transform="translate(-5.89 -4.6)"/><path class="cls-4" d="M256.55,87.86v32.62h-5.4V87.86Z" transform="translate(-5.89 -4.6)"/><path class="cls-4" d="M274.12,92.34H261.91V87.86h29.82v4.48H279.54v28.14h-5.42Z" transform="translate(-5.89 -4.6)"/></svg>