<svg xmlns="http://www.w3.org/2000/svg" xmlns:xlink="http://www.w3.org/1999/xlink" version="1.1" x="0px" y="0px" viewBox="0 0 50 62.5" enable-background="new 0 0 50 50" xml:space="preserve"><g><path d="M44.7221,15.3933C34.1564,4.5107,11.9151,9.2259,6.0326,10.7182c-3.3124,0.8402-5.0634,3.7079-4.8916,6.7686   c0.1084,1.9319,0.1938,4.9048-0.1102,7.1462c-0.2774,2.0457,1.371,3.5613,2.8517,4.4906c1.0885,0.6832,2.3584,0.9673,3.6435,0.9788   c2.828,0.0252,7.6925,1.3636,9.5001,4.2721c1.5155,2.4387,5.853,7.3011,16.3143,7.2093c8.8073-0.0773,12.7354-3.4708,14.4348-5.963   c2.0339-2.9828,0.5557-5.0576,1.0449-8.0536C50.0326,20.1388,44.7221,15.3933,44.7221,15.3933z M44.203,30.2843   c0,0-11.5538,8.1206-21.6313,0.7154c-2.4979-1.8354-5.667-8.6094-12.5754-8.561c-1.8969,0.0133-3.3455-0.4219-4.6973-1.2996   c-2.3582-1.5313-2.3687-5.2775-0.0635-6.9053c2.8628-2.0217,9.4101-4.2228,24.2744-2.6898   c5.4942,0.5666,10.6771,3.36,14.2841,8.0031C46.5178,23.0534,48.0575,27.1784,44.203,30.2843z"/><path d="M29.9694,13.8275c-12.605-2.2128-18.3372-0.9772-20.9099,0.377c-2.0716,1.0904-2.2971,3.9697-0.3781,5.3105   c1.2089,0.8445,2.4621,1.2152,3.9323,1.3256c5.9016,0.4434,8.192,5.8713,10.2092,7.4539   c8.1472,6.3918,18.5278,0.9561,18.5278,0.9561c3.488-2.1183,2.4305-5.3952,0.3227-8.2791   C38.8822,17.1527,34.6285,14.6454,29.9694,13.8275z M32.6817,28.2135c-3.1145,0-5.6392-2.2413-5.6392-5.0062   s2.5247-5.0062,5.6392-5.0062c3.1144,0,5.6392,2.2413,5.6392,5.0062S35.7961,28.2135,32.6817,28.2135z"/><path d="M32.1639,19.9272c-2.0148,0-3.6541,1.5616-3.6541,3.4814c0,1.9197,1.6393,3.4814,3.6541,3.4814   c2.0149,0,3.6536-1.5617,3.6536-3.4814C35.8175,21.4888,34.1788,19.9272,32.1639,19.9272z"/></g><text x="0" y="65" fill="#000000" font-size="5px" font-weight="bold" font-family="'Helvetica Neue', Helvetica, Arial-Unicode, Arial, Sans-serif">Created by Vectors Market</text><text x="0" y="70" fill="#000000" font-size="5px" font-weight="bold" font-family="'Helvetica Neue', Helvetica, Arial-Unicode, Arial, Sans-serif">from the Noun Project</text></svg>