<svg xmlns="http://www.w3.org/2000/svg" xmlns:xlink="http://www.w3.org/1999/xlink" version="1.1" x="0px" y="0px" viewBox="0 0 32 40" style="enable-background:new 0 0 32 32;" xml:space="preserve"><style type="text/css">
	.st0{fill:none;stroke:#000000;stroke-miterlimit:10;}
	.st1{fill:none;stroke:#000000;stroke-width:0.75;stroke-miterlimit:10;}
	.st2{fill:none;stroke:#000000;stroke-width:0.25;stroke-miterlimit:10;}
	.st3{fill:#FFFFFF;stroke:#000000;stroke-miterlimit:10;}
	.st4{fill:none;stroke:#000000;stroke-width:0.5;stroke-miterlimit:10;}
	.st5{fill:#010101;}
</style><g><path class="st0" d="M10.8,2.6l3.3,9.1c0,0,0,0,0.1,0h11.9c0.1,0,0.1-0.1,0.1-0.1l-4.6-9c0,0,0,0-0.1,0L10.9,2.5   C10.8,2.5,10.8,2.6,10.8,2.6z"/><path class="st0" d="M10.9,2.6L6.1,9.2C6,9.3,6.1,9.5,6.2,9.6l7.8,2.2"/><path class="st0" d="M14.2,11.8L14,30.9c0,0,0,0.1,0.1,0.1l12-0.4c0,0,0.1,0,0.1-0.1V11.7"/><path class="st0" d="M14.1,30.9l-7.8-3.2c-0.1,0-0.2,0-0.2-0.1l0-18.1"/><rect x="10.9" y="1" class="st0" width="10.7" height="1.5"/></g><text x="0" y="47" fill="#000000" font-size="5px" font-weight="bold" font-family="'Helvetica Neue', Helvetica, Arial-Unicode, Arial, Sans-serif">Created by Christine Song</text><text x="0" y="52" fill="#000000" font-size="5px" font-weight="bold" font-family="'Helvetica Neue', Helvetica, Arial-Unicode, Arial, Sans-serif">from the Noun Project</text></svg>